<?xml version="1.0" encoding="utf-8"?>
<!-- Generator: Adobe Illustrator 26.0.2, SVG Export Plug-In . SVG Version: 6.00 Build 0)  -->
<svg version="1.1" id="graphic_element" xmlns="http://www.w3.org/2000/svg" xmlns:xlink="http://www.w3.org/1999/xlink" x="0px"
	 y="0px" viewBox="0 0 1200 1200" style="enable-background:new 0 0 1200 1200;" xml:space="preserve">
<style type="text/css">
	.st0{opacity:0.08;}
	.st1{fill:url(#SVGID_1_);}
	.st2{fill:url(#SVGID_00000016077749213298000820000003106121977178302861_);}
	.st3{fill:url(#SVGID_00000093867917208164965950000010114089628903554434_);}
	.st4{fill:url(#SVGID_00000023256128190824643510000003833246921825334174_);}
	.st5{fill:url(#SVGID_00000106136643632711907090000006606965800070794393_);}
	.st6{fill:url(#SVGID_00000037671102413380826670000010508530043946052775_);}
	.st7{fill:url(#SVGID_00000055677796983440700510000002344773201677625985_);}
	.st8{fill:url(#SVGID_00000082326654541282364370000005040731935952451985_);}
	.st9{fill:#FFFFFF;}
</style>
<g>
	<g class="st0">
		<g>
			<linearGradient id="SVGID_1_" gradientUnits="userSpaceOnUse" x1="654.7517" y1="482.6516" x2="1093.7925" y2="482.6516">
				<stop  offset="0" style="stop-color:#FFFFFF"/>
				<stop  offset="1" style="stop-color:#000000"/>
			</linearGradient>
			<path class="st1" d="M840.77,753.74c0.25-2.72,0.36-5.54,0.32-8.27c-0.58-38.5,14.44-78.15,42.25-105.35
				c13.49-13.28,26.92-26.53,40-40.21c26.6-27.06,63.41-40.72,101.24-36.97c2.08,0.21,4.19,0.32,6.28,0.37
				c35.94,0.83,70.34-26.67,61.53-64.97c-8.69-37.76-19.83-81.23-84.84-80.17c-2.09,0.03-4.07-0.79-6.05-1.05
				c-39.81-5.15-76.76-25.66-104.65-54.15c-14.25-14.86-28.26-29.95-42.07-45.23c-26-29.34-46.31-65.61-53.11-104.47
				c-0.41-2.32-0.93-4.69-1.59-7.1c-5.5-20.19-18.13-38.22-32.86-52.81c-13.8-13.68-31.23-26.09-50.39-30.37
				c-38.4-8.57-63.19,26.27-62.06,61.01c1.45,44.31,40.05,81.5,83.6,87.03c0.52,0.07,1.03,0.13,1.54,0.18
				c36.98,4.09,70.02,24.37,95.14,51.17c19.69,21.46,38.84,43.38,59.09,64.33c25.01,26.17,46.29,58.85,50.53,95.56
				c0.02,0.15,0.04,0.31,0.06,0.46c0.02,0.15,0.04,0.31,0.06,0.46c4.24,34.06-7.34,66.31-30.66,91.67
				c-18.28,19.37-36.16,39.08-55.26,57.65c-26.98,26.42-64.16,40.4-101.33,41.81c-0.58,0.02-1.16,0.04-1.74,0.07
				c-47.73,2.37-91.08,39.85-91.81,89.24c-0.69,46.57,38.71,83.24,85,79.81C795.06,840.02,836.48,799.78,840.77,753.74z"/>
			
				<linearGradient id="SVGID_00000015312374920567713280000001282845795748101288_" gradientUnits="userSpaceOnUse" x1="371.2643" y1="878.4899" x2="1093.793" y2="878.4899">
				<stop  offset="0" style="stop-color:#FFFFFF"/>
				<stop  offset="1" style="stop-color:#000000"/>
			</linearGradient>
			<path style="fill:url(#SVGID_00000015312374920567713280000001282845795748101288_);" d="M461.81,843.31
				c2.88,0.27,5.85,0.39,8.74,0.36c40.29-0.44,83.44,13.97,111.85,43.61c13.29,13.77,26.43,27.69,39.73,41.44
				c25.58,27.1,38.55,63.52,33.38,100.68c-0.28,2.02-0.48,4.07-0.59,6.11c-1.34,24.49,11.63,51.28,36.12,59.2
				c27.74,8.97,66.95-5.47,87.57-23.81c11.99-10.67,16.98-25.74,21.31-41.25c3.96-14.19,1.61-27.82,5.96-42.22
				c9.41-31.13,27.13-60.07,49.05-83.98c13.96-15.22,28.09-30.29,42.42-45.16c27.57-28.07,64.29-48.5,103.37-54.54
				c2.36-0.36,4.72-1.16,7.23-1.49c52.58-6.86,75.92-44.29,84.51-82.24c3.56-15.73,0.13-32.42-11.45-44.07
				c-12.96-13.04-31.81-17.26-49.42-16.28c-42.88,2.4-80.89,38.3-87.12,81.1c-0.07,0.49-0.14,0.99-0.2,1.48
				c-4.54,36.21-25.65,68.61-50.66,94.28c-20.48,20.75-39.81,42.52-59.64,63.88c-24.96,26.33-57.5,46.71-94.12,50.84
				c-0.16,0.02-0.31,0.03-0.47,0.05c-0.16,0.02-0.31,0.04-0.47,0.05c-34.26,3.89-66.8-7.67-91.55-31.99
				c-18.84-19.06-37.17-38.61-56.14-57.53c-26.39-26.09-41.76-62.14-42.7-98.89c-0.01-0.55-0.03-1.1-0.05-1.65
				c-1.92-49.35-46.05-86.5-94.04-87.57c-45-1-86.37,31.81-82.96,79.18C374.78,799.08,416.27,839.06,461.81,843.31z"/>
			
				<linearGradient id="SVGID_00000097485409855631184810000006473400980149569179_" gradientUnits="userSpaceOnUse" x1="198.9563" y1="269.5504" x2="333.6331" y2="269.5504">
				<stop  offset="0" style="stop-color:#FFFFFF"/>
				<stop  offset="1" style="stop-color:#000000"/>
			</linearGradient>
			<path style="fill:url(#SVGID_00000097485409855631184810000006473400980149569179_);" d="M327.47,238.42
				c-15.55,40.05-52.11,76.66-92.2,92.13c-7.64,2.95-27.07,10.92-34.36,2.46c-6.75-7.83,5.75-22.28,10.1-28
				c12.86-16.9,28.38-32.2,43.48-47.28c15.12-15.1,30.43-30.66,47.34-43.53c5.8-4.41,20.16-16.74,28.02-9.82
				C338.24,211.75,330.47,230.71,327.47,238.42z"/>
			
				<linearGradient id="SVGID_00000094594083618474818460000006756017947527161789_" gradientUnits="userSpaceOnUse" x1="878.6043" y1="269.3949" x2="1013.2773" y2="269.3949">
				<stop  offset="0" style="stop-color:#FFFFFF"/>
				<stop  offset="1" style="stop-color:#000000"/>
			</linearGradient>
			<path style="fill:url(#SVGID_00000094594083618474818460000006756017947527161789_);" d="M1001.22,305.01
				c4.23,5.55,16.85,20.14,10.11,27.89c-7.32,8.41-26.61,0.36-34.35-2.66c-40.12-15.66-76.56-52.46-92.2-92.56
				c-2.98-7.64-10.82-26.46-2.4-33.6c7.87-6.68,22.38,5.81,28.02,10.11c16.91,12.87,32.24,28.39,47.34,43.49
				C972.85,272.78,988.35,288.11,1001.22,305.01z"/>
			
				<linearGradient id="SVGID_00000005259041574952665170000015840206576474543035_" gradientUnits="userSpaceOnUse" x1="199.0789" y1="949.3692" x2="333.7127" y2="949.3692">
				<stop  offset="0" style="stop-color:#FFFFFF"/>
				<stop  offset="1" style="stop-color:#000000"/>
			</linearGradient>
			<path style="fill:url(#SVGID_00000005259041574952665170000015840206576474543035_);" d="M327.62,981.02
				c2.96,7.53,10.7,26.25,2.29,33.39c-7.92,6.73-22.28-5.61-28.08-10.02c-16.9-12.86-32.2-28.41-47.3-43.5
				c-15.11-15.1-30.64-30.41-43.52-47.32c-4.25-5.58-16.84-20.14-9.89-27.73c7.51-8.19,26.94,0.16,34.54,3.21
				C275.35,904.95,311.98,941.18,327.62,981.02z"/>
			
				<linearGradient id="SVGID_00000004521432994763924020000005698595777471645589_" gradientUnits="userSpaceOnUse" x1="878.5298" y1="949.513" x2="1013.1542" y2="949.513">
				<stop  offset="0" style="stop-color:#FFFFFF"/>
				<stop  offset="1" style="stop-color:#000000"/>
			</linearGradient>
			<path style="fill:url(#SVGID_00000004521432994763924020000005698595777471645589_);" d="M1001.22,913.58
				c-12.88,16.92-28.4,32.26-43.52,47.37c-15.09,15.09-30.41,30.59-47.3,43.45c-5.64,4.29-20.14,16.79-28.07,10.29
				c-8.43-6.92-0.63-25.49,2.31-32.96c15.73-39.89,52.24-76.32,91.94-92.39c7.7-3.12,26.99-11.53,34.53-3.39
				C1018.07,893.46,1005.35,908.16,1001.22,913.58z"/>
			
				<linearGradient id="SVGID_00000164476745050822797300000016840115683782296453_" gradientUnits="userSpaceOnUse" x1="118.6957" y1="739.2299" x2="557.5272" y2="739.2299">
				<stop  offset="0" style="stop-color:#FFFFFF"/>
				<stop  offset="1" style="stop-color:#000000"/>
			</linearGradient>
			<path style="fill:url(#SVGID_00000164476745050822797300000016840115683782296453_);" d="M474.25,950.99
				c-0.57-0.08-1.14-0.15-1.7-0.21c-39.34-4.41-74.82-26.55-101.6-54.93c-15.87-17.15-31.49-34.53-47.93-51.13
				c-27.06-27.66-50.03-62.2-54.93-101.38c-0.02-0.16-0.04-0.32-0.06-0.48c-0.07-0.54-0.15-1.08-0.22-1.61
				c-5.16-36.48,7.02-71.32,33.65-97.14c13.32-12.55,26.87-24.87,39.52-38.11c29.01-30.47,70.13-45.77,111.58-45.5
				c0.68,0,1.38,0.01,2.07,0c50.04-0.46,93-41.05,93.96-91.51c0.9-47.76-36.75-90.66-86.11-87.27
				c-47.85,3.29-88.77,46.95-92.12,94.24c-0.05,0.65-0.09,1.3-0.12,1.95c-1.88,39.98-17.18,81.63-45.72,110.34
				c-13.29,13.27-26.67,26.41-40.46,39.16c-27.73,24.98-64.1,36.28-101.18,32.78c-0.5-0.05-1-0.1-1.5-0.13
				c-17.74-1.21-36.7,3.06-49.83,16.09c-11.81,11.73-14.84,28.07-11.72,44.12c10.57,54.25,36.27,75.14,85.41,82.33
				c0.97,0.14,1.91,0.44,2.85,0.64c40.66,8.39,78.2,29.63,107.34,59.09c13.32,13.72,26.49,27.59,39.51,41.59
				c26.86,29.39,48.36,65.91,56.74,105.08c0.28,1.32,0.62,2.67,0.98,4.02c9.84,36.54,45.22,74.39,82.73,82.61
				c37.8,8.29,63.25-24.39,62.09-59.42C556.04,992.65,516.61,956.63,474.25,950.99z"/>
			
				<linearGradient id="SVGID_00000162310913438584152290000010691438472195304839_" gradientUnits="userSpaceOnUse" x1="118.4866" y1="342.538" x2="842.1553" y2="342.538">
				<stop  offset="0" style="stop-color:#FFFFFF"/>
				<stop  offset="1" style="stop-color:#000000"/>
			</linearGradient>
			<path style="fill:url(#SVGID_00000162310913438584152290000010691438472195304839_);" d="M751.28,383.42
				c-2.91-0.24-5.91-0.34-8.84-0.25c-41.58,1.2-84.16-15.15-112.59-45.93c-13.21-14.2-26.15-28.64-39.31-42.89
				c-25.64-28.36-38.56-65.19-33.58-103.33c0.27-2.07,0.49-4.18,0.58-6.24c1.52-35.38-23.56-70.42-62.39-61.75
				c-19.48,4.35-44.88,11.76-58.72,25.8c-14.64,14.86-19.25,38.6-24.48,58.98c-0.51,2-0.96,3.98-1.3,5.92
				c-6.85,38.97-27.54,76.01-53.78,105.28c-13.82,15.13-27.85,30.06-42.1,44.78c-27.86,28.18-64.21,48.27-103.75,53.32
				c-2.37,0.3-4.72,1.27-7.25,1.29c-50.06,0.3-75.79,42.33-83.98,80.17c-8.38,38.75,25,64.7,60.64,64.82
				c43.66,0.15,80.84-36.27,86.88-79.12c0.07-0.51,0.14-1.01,0.2-1.52c4.61-36.99,25.52-69.75,50.85-96.25
				c20.25-20.93,39.54-42.68,59.13-64.22c24.79-26.67,57.73-47.76,94.59-51.7c0.16-0.02,0.31-0.04,0.47-0.05
				c0.16-0.02,0.32-0.04,0.47-0.06c34.7-4.01,67.65,8.06,92.39,33.11c19.04,19.88,37.24,40.46,55.72,60.86
				c26.3,29.02,41.84,66.79,42.84,105.73c0.01,0.58,0.03,1.16,0.05,1.74c1.92,50.06,44.48,89.96,94.35,89.94
				c46.91-0.01,86.76-36.91,83.6-84.96C838.89,429.97,798.36,387.34,751.28,383.42z"/>
		</g>
	</g>
	<g>
		<g>
			<path class="st9" d="M828.49,734.65c0.25-2.72,0.36-5.54,0.32-8.27c-0.58-38.5,14.44-78.15,42.25-105.35
				c13.49-13.28,26.92-26.53,40-40.21c26.6-27.06,63.41-40.72,101.24-36.97c2.08,0.21,4.19,0.32,6.28,0.37
				c35.94,0.83,70.34-26.67,61.53-64.97c-8.69-37.76-19.83-81.23-84.84-80.17c-2.09,0.03-4.07-0.79-6.05-1.05
				c-39.81-5.15-76.76-25.66-104.65-54.15c-14.25-14.86-28.26-29.95-42.07-45.23c-26-29.34-46.31-65.61-53.11-104.47
				c-0.41-2.32-0.93-4.69-1.59-7.1c-5.5-20.19-18.13-38.22-32.86-52.81c-13.8-13.68-31.23-26.09-50.39-30.37
				c-38.4-8.57-63.19,26.27-62.06,61.01c1.45,44.31,40.05,81.5,83.6,87.03c0.52,0.07,1.03,0.13,1.54,0.18
				c36.98,4.09,70.02,24.37,95.13,51.17c19.69,21.46,38.84,43.38,59.09,64.33c25.01,26.17,46.29,58.85,50.53,95.56
				c0.02,0.15,0.04,0.31,0.06,0.46c0.02,0.15,0.04,0.31,0.06,0.46c4.24,34.06-7.34,66.31-30.66,91.67
				c-18.28,19.37-36.16,39.08-55.26,57.65c-26.98,26.42-64.16,40.4-101.33,41.81c-0.58,0.02-1.16,0.04-1.74,0.07
				c-47.73,2.37-91.08,39.85-91.81,89.24c-0.69,46.57,38.71,83.24,85,79.81C782.78,820.92,824.2,780.69,828.49,734.65z"/>
			<path class="st9" d="M449.53,824.21c2.88,0.27,5.85,0.39,8.74,0.36c40.29-0.44,83.44,13.97,111.85,43.61
				c13.29,13.77,26.43,27.69,39.73,41.44c25.58,27.1,38.55,63.52,33.38,100.68c-0.28,2.02-0.48,4.07-0.59,6.11
				c-1.34,24.49,11.63,51.28,36.12,59.2c27.74,8.97,66.95-5.47,87.57-23.81c11.99-10.67,16.98-25.74,21.31-41.25
				c3.96-14.19,1.61-27.82,5.96-42.22c9.41-31.13,27.13-60.07,49.05-83.98c13.96-15.22,28.09-30.29,42.42-45.16
				c27.57-28.07,64.29-48.5,103.37-54.54c2.36-0.36,4.72-1.16,7.23-1.49c52.58-6.86,75.92-44.29,84.51-82.24
				c3.56-15.73,0.13-32.42-11.45-44.07c-12.96-13.04-31.81-17.26-49.42-16.28c-42.88,2.4-80.89,38.3-87.12,81.1
				c-0.07,0.49-0.14,0.99-0.2,1.48c-4.54,36.21-25.65,68.61-50.66,94.28c-20.48,20.75-39.81,42.52-59.64,63.88
				c-24.96,26.33-57.5,46.71-94.12,50.84c-0.16,0.02-0.31,0.03-0.47,0.05c-0.16,0.02-0.31,0.04-0.47,0.05
				c-34.26,3.89-66.8-7.67-91.55-31.99c-18.84-19.06-37.17-38.61-56.14-57.53c-26.39-26.09-41.76-62.14-42.7-98.89
				c-0.01-0.55-0.03-1.1-0.05-1.65c-1.92-49.35-46.05-86.5-94.04-87.57c-45-1-86.37,31.81-82.96,79.18
				C362.5,779.98,403.99,819.97,449.53,824.21z"/>
			<path class="st9" d="M315.19,219.33c-15.55,40.05-52.11,76.66-92.2,92.13c-7.64,2.95-27.07,10.92-34.36,2.46
				c-6.75-7.83,5.75-22.28,10.1-28c12.86-16.9,28.38-32.2,43.48-47.28c15.11-15.1,30.43-30.66,47.34-43.53
				c5.8-4.41,20.16-16.74,28.02-9.82C325.96,192.65,318.19,211.61,315.19,219.33z"/>
			<path class="st9" d="M988.94,285.92c4.23,5.55,16.85,20.14,10.11,27.89c-7.32,8.41-26.61,0.36-34.35-2.66
				c-40.12-15.66-76.56-52.46-92.2-92.56c-2.98-7.64-10.82-26.46-2.4-33.6c7.87-6.68,22.38,5.81,28.02,10.11
				c16.91,12.87,32.24,28.39,47.34,43.49C960.57,253.68,976.07,269.01,988.94,285.92z"/>
			<path class="st9" d="M315.34,961.93c2.96,7.53,10.7,26.25,2.29,33.39c-7.92,6.73-22.28-5.61-28.08-10.02
				c-16.9-12.86-32.2-28.41-47.3-43.5c-15.11-15.1-30.64-30.41-43.52-47.32c-4.25-5.58-16.84-20.14-9.89-27.73
				c7.51-8.19,26.94,0.16,34.54,3.21C263.07,885.85,299.7,922.09,315.34,961.93z"/>
			<path class="st9" d="M988.94,894.48c-12.88,16.92-28.4,32.26-43.52,47.37c-15.09,15.09-30.41,30.59-47.3,43.45
				c-5.64,4.29-20.14,16.79-28.07,10.29c-8.43-6.92-0.63-25.49,2.31-32.96c15.73-39.89,52.24-76.32,91.94-92.39
				c7.7-3.12,26.99-11.53,34.53-3.39C1005.79,874.37,993.07,889.06,988.94,894.48z"/>
			<path class="st9" d="M461.97,931.9c-0.57-0.08-1.14-0.15-1.7-0.21c-39.34-4.41-74.82-26.55-101.6-54.93
				c-15.87-17.15-31.49-34.53-47.93-51.13c-27.06-27.66-50.03-62.2-54.93-101.38c-0.02-0.16-0.04-0.32-0.06-0.48
				c-0.07-0.54-0.15-1.08-0.22-1.61c-5.16-36.48,7.02-71.32,33.65-97.14c13.32-12.55,26.87-24.87,39.52-38.11
				c29.01-30.47,70.13-45.77,111.58-45.5c0.68,0,1.38,0.01,2.07,0c50.04-0.46,93-41.05,93.96-91.51
				c0.9-47.76-36.75-90.66-86.11-87.27c-47.85,3.29-88.77,46.95-92.11,94.24c-0.05,0.65-0.09,1.3-0.12,1.95
				c-1.88,39.98-17.18,81.63-45.72,110.34c-13.29,13.27-26.67,26.42-40.46,39.16c-27.73,24.98-64.1,36.28-101.18,32.78
				c-0.5-0.05-1-0.1-1.5-0.13c-17.74-1.21-36.7,3.06-49.83,16.09c-11.81,11.73-14.84,28.07-11.72,44.12
				c10.57,54.25,36.27,75.14,85.41,82.33c0.97,0.14,1.91,0.44,2.85,0.64c40.66,8.39,78.2,29.63,107.34,59.09
				c13.32,13.72,26.49,27.59,39.51,41.59c26.86,29.39,48.36,65.91,56.74,105.08c0.28,1.32,0.62,2.67,0.98,4.02
				c9.84,36.54,45.22,74.39,82.73,82.61c37.8,8.29,63.25-24.39,62.09-59.42C543.76,973.55,504.33,937.54,461.97,931.9z"/>
			<path class="st9" d="M739,364.32c-2.91-0.24-5.91-0.34-8.84-0.25c-41.58,1.2-84.16-15.15-112.59-45.93
				c-13.21-14.2-26.15-28.64-39.31-42.89c-25.64-28.36-38.56-65.19-33.59-103.33c0.27-2.07,0.49-4.18,0.58-6.24
				c1.52-35.38-23.56-70.42-62.38-61.75c-19.48,4.35-44.88,11.76-58.72,25.8c-14.64,14.86-19.25,38.6-24.48,58.98
				c-0.51,2-0.96,3.98-1.3,5.92c-6.85,38.97-27.54,76.01-53.78,105.28c-13.82,15.13-27.85,30.06-42.1,44.78
				c-27.86,28.18-64.21,48.27-103.75,53.32c-2.37,0.3-4.72,1.27-7.25,1.29c-50.06,0.3-75.79,42.33-83.98,80.17
				c-8.38,38.75,25,64.7,60.64,64.82c43.66,0.15,80.84-36.27,86.88-79.12c0.07-0.51,0.14-1.01,0.2-1.52
				c4.61-36.99,25.52-69.75,50.85-96.25c20.25-20.93,39.54-42.68,59.13-64.22c24.79-26.67,57.73-47.76,94.59-51.7
				c0.16-0.02,0.31-0.04,0.47-0.05c0.16-0.02,0.32-0.04,0.47-0.06c34.7-4.01,67.65,8.06,92.39,33.11
				c19.04,19.88,37.24,40.46,55.72,60.86c26.3,29.02,41.84,66.79,42.84,105.73c0.02,0.58,0.03,1.16,0.05,1.74
				c1.92,50.06,44.48,89.96,94.35,89.94c46.91-0.01,86.76-36.91,83.6-84.96C826.62,410.87,786.08,368.25,739,364.32z"/>
		</g>
	</g>
</g>
</svg>
